<svg width="201" height="23" viewBox="0 0 201 23" fill="none" xmlns="http://www.w3.org/2000/svg">
<path d="M2.144 16.5417C1.58933 16.5417 1.312 16.259 1.312 15.6937V5.99769C1.312 5.43235 1.59467 5.14969 2.16 5.14969H5.984C7.2 5.14969 8.13867 5.44302 8.8 6.02969C9.46133 6.60569 9.792 7.41635 9.792 8.46169C9.792 9.30435 9.568 9.99769 9.12 10.5417C8.672 11.075 8.03733 11.4324 7.216 11.6137C7.728 11.7844 8.16 12.195 8.512 12.8457L9.888 15.4057C10.048 15.6937 10.08 15.955 9.984 16.1897C9.888 16.4244 9.66933 16.5417 9.328 16.5417C9.09333 16.5417 8.90133 16.4937 8.752 16.3977C8.60267 16.3017 8.47467 16.147 8.368 15.9337L6.688 12.8297C6.464 12.4137 6.20267 12.1364 5.904 11.9977C5.616 11.8484 5.24267 11.7737 4.784 11.7737H2.976V15.6937C2.976 16.259 2.69867 16.5417 2.144 16.5417ZM2.976 10.5257H5.712C7.35467 10.5257 8.176 9.84835 8.176 8.49369C8.176 7.14969 7.35467 6.47769 5.712 6.47769H2.976V10.5257ZM15.4406 16.5737C14.1606 16.5737 13.1526 16.2164 12.4166 15.5017C11.6806 14.7764 11.3126 13.7897 11.3126 12.5417C11.3126 11.7417 11.4726 11.0377 11.7926 10.4297C12.1233 9.81102 12.5766 9.33102 13.1526 8.98969C13.7286 8.64835 14.39 8.47769 15.1366 8.47769C16.214 8.47769 17.062 8.82435 17.6806 9.51769C18.2993 10.2004 18.6086 11.1444 18.6086 12.3497C18.6086 12.7124 18.3953 12.8937 17.9686 12.8937H12.8806C12.998 14.515 13.8566 15.3257 15.4566 15.3257C15.7766 15.3257 16.1126 15.2884 16.4646 15.2137C16.8166 15.1284 17.158 14.979 17.4886 14.7657C17.7126 14.6377 17.9046 14.595 18.0646 14.6377C18.2353 14.6697 18.358 14.7604 18.4326 14.9097C18.5073 15.0484 18.518 15.2084 18.4646 15.3897C18.422 15.5604 18.2993 15.7097 18.0966 15.8377C17.734 16.083 17.3073 16.2697 16.8166 16.3977C16.3366 16.515 15.878 16.5737 15.4406 16.5737ZM15.2006 9.61369C14.5286 9.61369 13.9953 9.82169 13.6006 10.2377C13.206 10.6537 12.966 11.2084 12.8806 11.9017H17.2486C17.2166 11.1764 17.0246 10.6164 16.6726 10.2217C16.3206 9.81635 15.83 9.61369 15.2006 9.61369ZM22.8664 16.5737C22.3224 16.5737 21.837 16.467 21.4104 16.2537C20.9837 16.0404 20.6424 15.7524 20.3864 15.3897C20.141 15.027 20.0184 14.6164 20.0184 14.1577C20.0184 13.5817 20.1624 13.1284 20.4504 12.7977C20.749 12.467 21.2344 12.227 21.9064 12.0777C22.589 11.9284 23.5064 11.8537 24.6584 11.8537H25.2024V11.4377C25.2024 10.8297 25.0744 10.3924 24.8184 10.1257C24.5624 9.85902 24.141 9.72569 23.5544 9.72569C23.213 9.72569 22.8557 9.76835 22.4824 9.85369C22.1197 9.93902 21.741 10.083 21.3464 10.2857C21.1224 10.3924 20.9357 10.4084 20.7864 10.3337C20.6477 10.259 20.5517 10.1417 20.4984 9.98169C20.445 9.82169 20.4504 9.65635 20.5144 9.48569C20.5784 9.31502 20.7117 9.18702 20.9144 9.10169C21.3837 8.88835 21.8477 8.73369 22.3064 8.63769C22.765 8.53102 23.197 8.47769 23.6024 8.47769C24.669 8.47769 25.4584 8.73369 25.9704 9.24569C26.4824 9.74702 26.7384 10.5364 26.7384 11.6137V15.7257C26.7384 16.2697 26.4877 16.5417 25.9864 16.5417C25.4744 16.5417 25.2184 16.2697 25.2184 15.7257V15.1337C25.0264 15.5817 24.7277 15.9337 24.3224 16.1897C23.917 16.4457 23.4317 16.5737 22.8664 16.5737ZM23.1864 15.4217C23.7624 15.4217 24.2424 15.219 24.6264 14.8137C25.0104 14.4084 25.2024 13.8964 25.2024 13.2777V12.8457H24.6744C23.8957 12.8457 23.2824 12.883 22.8344 12.9577C22.397 13.0324 22.0824 13.1604 21.8904 13.3417C21.709 13.5124 21.6184 13.7524 21.6184 14.0617C21.6184 14.467 21.757 14.7977 22.0344 15.0537C22.3117 15.299 22.6957 15.4217 23.1864 15.4217ZM31.9401 16.5737C31.2575 16.5737 30.6548 16.4137 30.1321 16.0937C29.6201 15.763 29.2201 15.2937 28.9321 14.6857C28.6441 14.0777 28.5001 13.3577 28.5001 12.5257C28.5001 11.6937 28.6441 10.979 28.9321 10.3817C29.2201 9.77369 29.6201 9.30435 30.1321 8.97369C30.6441 8.64302 31.2468 8.47769 31.9401 8.47769C32.5268 8.47769 33.0495 8.60569 33.5081 8.86169C33.9668 9.11769 34.3081 9.46435 34.5321 9.90169V5.85369C34.5321 5.30969 34.7988 5.03769 35.3321 5.03769C35.8761 5.03769 36.1481 5.30969 36.1481 5.85369V15.7257C36.1481 16.2697 35.8815 16.5417 35.3481 16.5417C34.8148 16.5417 34.5481 16.2697 34.5481 15.7257V15.1177C34.3135 15.5657 33.9668 15.923 33.5081 16.1897C33.0495 16.4457 32.5268 16.5737 31.9401 16.5737ZM32.3561 15.3257C33.0175 15.3257 33.5508 15.0857 33.9561 14.6057C34.3615 14.1257 34.5641 13.4324 34.5641 12.5257C34.5641 11.619 34.3615 10.931 33.9561 10.4617C33.5508 9.98169 33.0175 9.74169 32.3561 9.74169C31.6841 9.74169 31.1455 9.98169 30.7401 10.4617C30.3348 10.931 30.1321 11.619 30.1321 12.5257C30.1321 13.4324 30.3348 14.1257 30.7401 14.6057C31.1455 15.0857 31.6841 15.3257 32.3561 15.3257ZM43.644 16.5417C43.0893 16.5417 42.812 16.259 42.812 15.6937V5.88569C42.812 5.32035 43.0893 5.03769 43.644 5.03769C44.1987 5.03769 44.476 5.32035 44.476 5.88569V15.6937C44.476 16.259 44.1987 16.5417 43.644 16.5417ZM47.7173 16.5417C47.1839 16.5417 46.9173 16.2697 46.9173 15.7257V9.32569C46.9173 8.78169 47.1786 8.50969 47.7013 8.50969C48.2239 8.50969 48.4853 8.78169 48.4853 9.32569V9.91769C48.7519 9.44835 49.1146 9.09102 49.5733 8.84569C50.0426 8.60035 50.5653 8.47769 51.1413 8.47769C52.9866 8.47769 53.9093 9.52302 53.9093 11.6137V15.7257C53.9093 16.2697 53.6426 16.5417 53.1093 16.5417C52.5653 16.5417 52.2933 16.2697 52.2933 15.7257V11.7097C52.2933 11.0377 52.1599 10.547 51.8933 10.2377C51.6373 9.92835 51.2319 9.77369 50.6773 9.77369C50.0266 9.77369 49.5039 9.98169 49.1093 10.3977C48.7253 10.803 48.5333 11.3417 48.5333 12.0137V15.7257C48.5333 16.2697 48.2613 16.5417 47.7173 16.5417ZM59.0819 16.5417C58.6339 16.5417 58.3032 16.3017 58.0899 15.8217L55.4179 9.61369C55.2899 9.32569 55.2845 9.06969 55.4019 8.84569C55.5192 8.62169 55.7592 8.50969 56.1219 8.50969C56.3139 8.50969 56.4685 8.55769 56.5859 8.65369C56.7139 8.74969 56.8259 8.91502 56.9219 9.14969L59.1139 14.5577L61.3539 9.14969C61.4499 8.91502 61.5565 8.74969 61.6739 8.65369C61.8019 8.55769 61.9779 8.50969 62.2019 8.50969C62.4899 8.50969 62.6872 8.62169 62.7939 8.84569C62.9005 9.06969 62.8952 9.32035 62.7779 9.59769L60.0739 15.8217C59.8712 16.3017 59.5405 16.5417 59.0819 16.5417ZM67.8938 16.5737C66.6138 16.5737 65.6058 16.2164 64.8698 15.5017C64.1338 14.7764 63.7658 13.7897 63.7658 12.5417C63.7658 11.7417 63.9258 11.0377 64.2458 10.4297C64.5764 9.81102 65.0298 9.33102 65.6058 8.98969C66.1818 8.64835 66.8431 8.47769 67.5898 8.47769C68.6671 8.47769 69.5151 8.82435 70.1338 9.51769C70.7524 10.2004 71.0618 11.1444 71.0618 12.3497C71.0618 12.7124 70.8484 12.8937 70.4218 12.8937H65.3338C65.4511 14.515 66.3098 15.3257 67.9098 15.3257C68.2298 15.3257 68.5658 15.2884 68.9178 15.2137C69.2698 15.1284 69.6111 14.979 69.9418 14.7657C70.1658 14.6377 70.3578 14.595 70.5178 14.6377C70.6884 14.6697 70.8111 14.7604 70.8858 14.9097C70.9604 15.0484 70.9711 15.2084 70.9178 15.3897C70.8751 15.5604 70.7524 15.7097 70.5498 15.8377C70.1871 16.083 69.7604 16.2697 69.2698 16.3977C68.7898 16.515 68.3311 16.5737 67.8938 16.5737ZM67.6538 9.61369C66.9818 9.61369 66.4484 9.82169 66.0538 10.2377C65.6591 10.6537 65.4191 11.2084 65.3338 11.9017H69.7018C69.6698 11.1764 69.4778 10.6164 69.1258 10.2217C68.7738 9.81635 68.2831 9.61369 67.6538 9.61369ZM75.5595 16.5737C75.0902 16.5737 74.6048 16.5204 74.1035 16.4137C73.6022 16.307 73.1488 16.1257 72.7435 15.8697C72.5622 15.763 72.4502 15.6297 72.4075 15.4697C72.3648 15.3097 72.3755 15.1604 72.4395 15.0217C72.5035 14.883 72.6048 14.787 72.7435 14.7337C72.8928 14.6697 73.0582 14.6857 73.2395 14.7817C73.6555 15.0057 74.0555 15.1657 74.4395 15.2617C74.8235 15.3577 75.2022 15.4057 75.5755 15.4057C76.1408 15.4057 76.5675 15.3044 76.8555 15.1017C77.1435 14.899 77.2875 14.627 77.2875 14.2857C77.2875 14.0084 77.1915 13.795 76.9995 13.6457C76.8075 13.4857 76.5195 13.363 76.1355 13.2777L74.6155 12.9737C73.2715 12.6964 72.5995 12.003 72.5995 10.8937C72.5995 10.1577 72.8928 9.57102 73.4795 9.13369C74.0662 8.69635 74.8342 8.47769 75.7835 8.47769C76.7435 8.47769 77.5702 8.71235 78.2635 9.18169C78.4342 9.28835 78.5355 9.42169 78.5675 9.58169C78.5995 9.73102 78.5782 9.87502 78.5035 10.0137C78.4288 10.1417 78.3168 10.2324 78.1675 10.2857C78.0288 10.339 77.8635 10.3177 77.6715 10.2217C77.3515 10.0297 77.0315 9.89102 76.7115 9.80569C76.3915 9.70969 76.0822 9.66169 75.7835 9.66169C75.2288 9.66169 74.8075 9.76835 74.5195 9.98169C74.2315 10.1844 74.0875 10.4617 74.0875 10.8137C74.0875 11.347 74.4395 11.6884 75.1435 11.8377L76.6635 12.1417C77.3568 12.2804 77.8795 12.515 78.2315 12.8457C78.5942 13.1764 78.7755 13.6244 78.7755 14.1897C78.7755 14.9364 78.4822 15.523 77.8955 15.9497C77.3088 16.3657 76.5302 16.5737 75.5595 16.5737ZM83.8234 16.5737C82.842 16.5737 82.1114 16.323 81.6314 15.8217C81.1514 15.3204 80.9114 14.595 80.9114 13.6457V9.86969H79.9514C79.5034 9.86969 79.2794 9.66169 79.2794 9.24569C79.2794 8.82969 79.5034 8.62169 79.9514 8.62169H80.9114V6.97369C80.9114 6.42969 81.1834 6.15769 81.7274 6.15769C82.2607 6.15769 82.5274 6.42969 82.5274 6.97369V8.62169H84.3994C84.8474 8.62169 85.0714 8.82969 85.0714 9.24569C85.0714 9.66169 84.8474 9.86969 84.3994 9.86969H82.5274V13.5177C82.5274 14.083 82.6447 14.5097 82.8794 14.7977C83.1247 15.0857 83.5194 15.2297 84.0634 15.2297C84.2554 15.2297 84.4207 15.2137 84.5594 15.1817C84.698 15.139 84.8207 15.1124 84.9274 15.1017C85.0447 15.1017 85.1407 15.1444 85.2154 15.2297C85.29 15.3044 85.3274 15.4537 85.3274 15.6777C85.3274 15.8484 85.2954 16.003 85.2314 16.1417C85.178 16.2697 85.0767 16.355 84.9274 16.3977C84.7994 16.451 84.6234 16.4937 84.3994 16.5257C84.186 16.5577 83.994 16.5737 83.8234 16.5737ZM87.1711 16.5417C86.6378 16.5417 86.3711 16.2697 86.3711 15.7257V9.32569C86.3711 8.78169 86.6325 8.50969 87.1551 8.50969C87.6778 8.50969 87.9391 8.78169 87.9391 9.32569V9.88569C88.1738 9.43769 88.4991 9.09102 88.9151 8.84569C89.3311 8.60035 89.8165 8.47769 90.3711 8.47769C91.5658 8.47769 92.3391 9.00035 92.6911 10.0457C92.9365 9.55502 93.2885 9.17102 93.7471 8.89369C94.2058 8.61635 94.7285 8.47769 95.3151 8.47769C97.0645 8.47769 97.9391 9.52302 97.9391 11.6137V15.7257C97.9391 16.2697 97.6671 16.5417 97.1231 16.5417C96.5898 16.5417 96.3231 16.2697 96.3231 15.7257V11.6937C96.3231 11.0324 96.2058 10.547 95.9711 10.2377C95.7471 9.92835 95.3738 9.77369 94.8511 9.77369C94.2645 9.77369 93.8005 9.98169 93.4591 10.3977C93.1178 10.803 92.9471 11.3577 92.9471 12.0617V15.7257C92.9471 16.2697 92.6805 16.5417 92.1471 16.5417C91.6031 16.5417 91.3311 16.2697 91.3311 15.7257V11.6937C91.3311 11.0324 91.2191 10.547 90.9951 10.2377C90.7711 9.92835 90.3978 9.77369 89.8751 9.77369C89.2885 9.77369 88.8245 9.98169 88.4831 10.3977C88.1525 10.803 87.9871 11.3577 87.9871 12.0617V15.7257C87.9871 16.2697 87.7151 16.5417 87.1711 16.5417ZM103.863 16.5737C102.583 16.5737 101.575 16.2164 100.839 15.5017C100.103 14.7764 99.7345 13.7897 99.7345 12.5417C99.7345 11.7417 99.8945 11.0377 100.215 10.4297C100.545 9.81102 100.999 9.33102 101.575 8.98969C102.151 8.64835 102.812 8.47769 103.559 8.47769C104.636 8.47769 105.484 8.82435 106.103 9.51769C106.721 10.2004 107.031 11.1444 107.031 12.3497C107.031 12.7124 106.817 12.8937 106.391 12.8937H101.303C101.42 14.515 102.279 15.3257 103.879 15.3257C104.199 15.3257 104.535 15.2884 104.887 15.2137C105.239 15.1284 105.58 14.979 105.911 14.7657C106.135 14.6377 106.327 14.595 106.487 14.6377C106.657 14.6697 106.78 14.7604 106.855 14.9097C106.929 15.0484 106.94 15.2084 106.887 15.3897C106.844 15.5604 106.721 15.7097 106.519 15.8377C106.156 16.083 105.729 16.2697 105.239 16.3977C104.759 16.515 104.3 16.5737 103.863 16.5737ZM103.623 9.61369C102.951 9.61369 102.417 9.82169 102.023 10.2377C101.628 10.6537 101.388 11.2084 101.303 11.9017H105.671C105.639 11.1764 105.447 10.6164 105.095 10.2217C104.743 9.81635 104.252 9.61369 103.623 9.61369ZM109.592 16.5417C109.059 16.5417 108.792 16.2697 108.792 15.7257V9.32569C108.792 8.78169 109.054 8.50969 109.576 8.50969C110.099 8.50969 110.36 8.78169 110.36 9.32569V9.91769C110.627 9.44835 110.99 9.09102 111.448 8.84569C111.918 8.60035 112.44 8.47769 113.016 8.47769C114.862 8.47769 115.784 9.52302 115.784 11.6137V15.7257C115.784 16.2697 115.518 16.5417 114.984 16.5417C114.44 16.5417 114.168 16.2697 114.168 15.7257V11.7097C114.168 11.0377 114.035 10.547 113.768 10.2377C113.512 9.92835 113.107 9.77369 112.552 9.77369C111.902 9.77369 111.379 9.98169 110.984 10.3977C110.6 10.803 110.408 11.3417 110.408 12.0137V15.7257C110.408 16.2697 110.136 16.5417 109.592 16.5417ZM121.339 16.5737C120.358 16.5737 119.627 16.323 119.147 15.8217C118.667 15.3204 118.427 14.595 118.427 13.6457V9.86969H117.467C117.019 9.86969 116.795 9.66169 116.795 9.24569C116.795 8.82969 117.019 8.62169 117.467 8.62169H118.427V6.97369C118.427 6.42969 118.699 6.15769 119.243 6.15769C119.776 6.15769 120.043 6.42969 120.043 6.97369V8.62169H121.915C122.363 8.62169 122.587 8.82969 122.587 9.24569C122.587 9.66169 122.363 9.86969 121.915 9.86969H120.043V13.5177C120.043 14.083 120.16 14.5097 120.395 14.7977C120.64 15.0857 121.035 15.2297 121.579 15.2297C121.771 15.2297 121.936 15.2137 122.075 15.1817C122.214 15.139 122.336 15.1124 122.443 15.1017C122.56 15.1017 122.656 15.1444 122.731 15.2297C122.806 15.3044 122.843 15.4537 122.843 15.6777C122.843 15.8484 122.811 16.003 122.747 16.1417C122.694 16.2697 122.592 16.355 122.443 16.3977C122.315 16.451 122.139 16.4937 121.915 16.5257C121.702 16.5577 121.51 16.5737 121.339 16.5737ZM132.01 16.5737C131.274 16.5737 130.564 16.4884 129.882 16.3177C129.21 16.147 128.623 15.891 128.122 15.5497C127.919 15.411 127.796 15.2457 127.754 15.0537C127.711 14.851 127.727 14.6697 127.802 14.5097C127.887 14.339 128.01 14.2217 128.17 14.1577C128.34 14.0937 128.532 14.131 128.746 14.2697C129.226 14.579 129.732 14.8084 130.266 14.9577C130.799 15.0964 131.38 15.1657 132.01 15.1657C132.916 15.1657 133.583 15.0057 134.01 14.6857C134.447 14.355 134.666 13.9284 134.666 13.4057C134.666 12.979 134.511 12.643 134.202 12.3977C133.892 12.1417 133.375 11.939 132.65 11.7897L130.938 11.4377C129.924 11.2244 129.167 10.8724 128.666 10.3817C128.175 9.89102 127.93 9.22969 127.93 8.39769C127.93 7.72569 128.106 7.13369 128.458 6.62169C128.82 6.10969 129.322 5.71502 129.962 5.43769C130.602 5.14969 131.338 5.00569 132.17 5.00569C132.831 5.00569 133.45 5.09102 134.026 5.26169C134.612 5.43235 135.135 5.69369 135.594 6.04569C135.775 6.17369 135.882 6.32835 135.914 6.50969C135.946 6.69102 135.919 6.86169 135.834 7.02169C135.748 7.17102 135.62 7.27235 135.45 7.32569C135.279 7.37902 135.082 7.33635 134.858 7.19769C134.442 6.92035 134.015 6.72302 133.578 6.60569C133.14 6.47769 132.666 6.41369 132.154 6.41369C131.364 6.41369 130.735 6.58969 130.266 6.94169C129.807 7.29369 129.578 7.76302 129.578 8.34969C129.578 8.79769 129.722 9.15502 130.01 9.42169C130.298 9.68835 130.778 9.89102 131.45 10.0297L133.146 10.3817C134.212 10.6057 135.007 10.9524 135.53 11.4217C136.052 11.8804 136.314 12.5044 136.314 13.2937C136.314 13.955 136.138 14.531 135.786 15.0217C135.434 15.5124 134.938 15.8964 134.298 16.1737C133.658 16.4404 132.895 16.5737 132.01 16.5737ZM141.308 16.5737C140.326 16.5737 139.596 16.323 139.116 15.8217C138.636 15.3204 138.396 14.595 138.396 13.6457V9.86969H137.436C136.988 9.86969 136.764 9.66169 136.764 9.24569C136.764 8.82969 136.988 8.62169 137.436 8.62169H138.396V6.97369C138.396 6.42969 138.668 6.15769 139.212 6.15769C139.745 6.15769 140.012 6.42969 140.012 6.97369V8.62169H141.884C142.332 8.62169 142.556 8.82969 142.556 9.24569C142.556 9.66169 142.332 9.86969 141.884 9.86969H140.012V13.5177C140.012 14.083 140.129 14.5097 140.364 14.7977C140.609 15.0857 141.004 15.2297 141.548 15.2297C141.74 15.2297 141.905 15.2137 142.044 15.1817C142.182 15.139 142.305 15.1124 142.412 15.1017C142.529 15.1017 142.625 15.1444 142.7 15.2297C142.774 15.3044 142.812 15.4537 142.812 15.6777C142.812 15.8484 142.78 16.003 142.716 16.1417C142.662 16.2697 142.561 16.355 142.412 16.3977C142.284 16.451 142.108 16.4937 141.884 16.5257C141.67 16.5577 141.478 16.5737 141.308 16.5737ZM144.64 16.5417C144.096 16.5417 143.824 16.2697 143.824 15.7257V9.32569C143.824 8.78169 144.085 8.50969 144.608 8.50969C145.13 8.50969 145.392 8.78169 145.392 9.32569V10.0137C145.605 9.53369 145.925 9.16569 146.352 8.90969C146.789 8.65369 147.317 8.50435 147.936 8.46169C148.33 8.42969 148.544 8.64302 148.576 9.10169C148.618 9.57102 148.389 9.82702 147.888 9.86969L147.584 9.90169C146.165 10.0404 145.456 10.771 145.456 12.0937V15.7257C145.456 16.2697 145.184 16.5417 144.64 16.5417ZM152.21 16.5737C151.666 16.5737 151.181 16.467 150.754 16.2537C150.327 16.0404 149.986 15.7524 149.73 15.3897C149.485 15.027 149.362 14.6164 149.362 14.1577C149.362 13.5817 149.506 13.1284 149.794 12.7977C150.093 12.467 150.578 12.227 151.25 12.0777C151.933 11.9284 152.85 11.8537 154.002 11.8537H154.546V11.4377C154.546 10.8297 154.418 10.3924 154.162 10.1257C153.906 9.85902 153.485 9.72569 152.898 9.72569C152.557 9.72569 152.199 9.76835 151.826 9.85369C151.463 9.93902 151.085 10.083 150.69 10.2857C150.466 10.3924 150.279 10.4084 150.13 10.3337C149.991 10.259 149.895 10.1417 149.842 9.98169C149.789 9.82169 149.794 9.65635 149.858 9.48569C149.922 9.31502 150.055 9.18702 150.258 9.10169C150.727 8.88835 151.191 8.73369 151.65 8.63769C152.109 8.53102 152.541 8.47769 152.946 8.47769C154.013 8.47769 154.802 8.73369 155.314 9.24569C155.826 9.74702 156.082 10.5364 156.082 11.6137V15.7257C156.082 16.2697 155.831 16.5417 155.33 16.5417C154.818 16.5417 154.562 16.2697 154.562 15.7257V15.1337C154.37 15.5817 154.071 15.9337 153.666 16.1897C153.261 16.4457 152.775 16.5737 152.21 16.5737ZM152.53 15.4217C153.106 15.4217 153.586 15.219 153.97 14.8137C154.354 14.4084 154.546 13.8964 154.546 13.2777V12.8457H154.018C153.239 12.8457 152.626 12.883 152.178 12.9577C151.741 13.0324 151.426 13.1604 151.234 13.3417C151.053 13.5124 150.962 13.7524 150.962 14.0617C150.962 14.467 151.101 14.7977 151.378 15.0537C151.655 15.299 152.039 15.4217 152.53 15.4217ZM161.636 16.5737C160.655 16.5737 159.924 16.323 159.444 15.8217C158.964 15.3204 158.724 14.595 158.724 13.6457V9.86969H157.764C157.316 9.86969 157.092 9.66169 157.092 9.24569C157.092 8.82969 157.316 8.62169 157.764 8.62169H158.724V6.97369C158.724 6.42969 158.996 6.15769 159.54 6.15769C160.073 6.15769 160.34 6.42969 160.34 6.97369V8.62169H162.212C162.66 8.62169 162.884 8.82969 162.884 9.24569C162.884 9.66169 162.66 9.86969 162.212 9.86969H160.34V13.5177C160.34 14.083 160.457 14.5097 160.692 14.7977C160.937 15.0857 161.332 15.2297 161.876 15.2297C162.068 15.2297 162.233 15.2137 162.372 15.1817C162.511 15.139 162.633 15.1124 162.74 15.1017C162.857 15.1017 162.953 15.1444 163.028 15.2297C163.103 15.3044 163.14 15.4537 163.14 15.6777C163.14 15.8484 163.108 16.003 163.044 16.1417C162.991 16.2697 162.889 16.355 162.74 16.3977C162.612 16.451 162.436 16.4937 162.212 16.5257C161.999 16.5577 161.807 16.5737 161.636 16.5737ZM167.738 16.5737C166.458 16.5737 165.45 16.2164 164.714 15.5017C163.978 14.7764 163.61 13.7897 163.61 12.5417C163.61 11.7417 163.77 11.0377 164.09 10.4297C164.42 9.81102 164.874 9.33102 165.45 8.98969C166.026 8.64835 166.687 8.47769 167.434 8.47769C168.511 8.47769 169.359 8.82435 169.978 9.51769C170.596 10.2004 170.906 11.1444 170.906 12.3497C170.906 12.7124 170.692 12.8937 170.266 12.8937H165.178C165.295 14.515 166.154 15.3257 167.754 15.3257C168.074 15.3257 168.41 15.2884 168.762 15.2137C169.114 15.1284 169.455 14.979 169.786 14.7657C170.01 14.6377 170.202 14.595 170.362 14.6377C170.532 14.6697 170.655 14.7604 170.73 14.9097C170.804 15.0484 170.815 15.2084 170.762 15.3897C170.719 15.5604 170.596 15.7097 170.394 15.8377C170.031 16.083 169.604 16.2697 169.114 16.3977C168.634 16.515 168.175 16.5737 167.738 16.5737ZM167.498 9.61369C166.826 9.61369 166.292 9.82169 165.898 10.2377C165.503 10.6537 165.263 11.2084 165.178 11.9017H169.546C169.514 11.1764 169.322 10.6164 168.97 10.2217C168.618 9.81635 168.127 9.61369 167.498 9.61369ZM176.203 19.4537C175.627 19.4537 175.067 19.395 174.523 19.2777C173.99 19.1604 173.505 18.9684 173.067 18.7017C172.875 18.595 172.758 18.4617 172.715 18.3017C172.673 18.1417 172.689 17.987 172.763 17.8377C172.849 17.6884 172.961 17.5764 173.099 17.5017C173.249 17.4377 173.409 17.4537 173.579 17.5497C174.049 17.8057 174.491 17.9764 174.907 18.0617C175.334 18.1577 175.729 18.2057 176.091 18.2057C177.585 18.2057 178.331 17.459 178.331 15.9657V14.7337C178.107 15.203 177.755 15.571 177.275 15.8377C176.806 16.1044 176.278 16.2377 175.691 16.2377C174.987 16.2377 174.374 16.0777 173.851 15.7577C173.329 15.427 172.923 14.9737 172.635 14.3977C172.347 13.811 172.203 13.1284 172.203 12.3497C172.203 11.5817 172.347 10.9097 172.635 10.3337C172.923 9.74702 173.329 9.29369 173.851 8.97369C174.374 8.64302 174.987 8.47769 175.691 8.47769C176.278 8.47769 176.801 8.61102 177.259 8.87769C177.729 9.13369 178.075 9.48569 178.299 9.93369V9.32569C178.299 8.78169 178.566 8.50969 179.099 8.50969C179.633 8.50969 179.899 8.78169 179.899 9.32569V15.7737C179.899 17.0004 179.585 17.9177 178.955 18.5257C178.326 19.1444 177.409 19.4537 176.203 19.4537ZM176.075 14.9737C176.758 14.9737 177.302 14.739 177.707 14.2697C178.113 13.8004 178.315 13.1604 178.315 12.3497C178.315 11.539 178.113 10.9044 177.707 10.4457C177.302 9.97635 176.758 9.74169 176.075 9.74169C175.393 9.74169 174.849 9.97635 174.443 10.4457C174.038 10.9044 173.835 11.539 173.835 12.3497C173.835 13.1604 174.038 13.8004 174.443 14.2697C174.849 14.739 175.393 14.9737 176.075 14.9737ZM184.007 19.4217C183.709 19.4217 183.501 19.3097 183.383 19.0857C183.277 18.8724 183.287 18.6217 183.415 18.3337L184.359 16.2217L181.511 9.61369C181.383 9.32569 181.378 9.06969 181.495 8.84569C181.623 8.62169 181.869 8.50969 182.231 8.50969C182.423 8.50969 182.578 8.55769 182.695 8.65369C182.823 8.74969 182.935 8.91502 183.031 9.14969L185.223 14.5577L187.447 9.14969C187.543 8.90435 187.655 8.73902 187.783 8.65369C187.911 8.55769 188.087 8.50969 188.311 8.50969C188.599 8.50969 188.797 8.62169 188.903 8.84569C189.01 9.06969 189.005 9.32035 188.887 9.59769L184.887 18.7977C184.781 19.043 184.658 19.2084 184.519 19.2937C184.391 19.379 184.221 19.4217 184.007 19.4217Z" fill="#9EE6FF"/>
<path d="M0 18.0777H189.351V18.7017H0V18.0777Z" fill="#9EE6FF"/>
<path d="M195 15.7383L199.03 11.4297L195 7.121" stroke="#9EE6FF" stroke-width="2" stroke-linecap="round" stroke-linejoin="round"/>
</svg>
